<svg xmlns="http://www.w3.org/2000/svg" width="3934" height="1979" viewBox="0 0 3934 1979">
  <g id="Groupe_1" data-name="Groupe 1" transform="translate(-216 154.685)">
    <g data-type="innerShadowGroup">
      <rect id="Rectangle_1" data-name="Rectangle 1" width="3934" height="1979" transform="translate(216 -154.685)" fill="#fff"/>
      <rect id="Rectangle_1-2" data-name="Rectangle 1" width="3934" height="1979" transform="translate(216 -154.685)" fill="#fff"/>
    </g>
    <g id="Groupe_3" data-name="Groupe 3" transform="translate(653.714 433.532)">
      <g id="Groupe_2" data-name="Groupe 2" transform="translate(0 0)">
        <g id="Groupe_1-2" data-name="Groupe 1" transform="translate(0 0)">
          <g id="Tracé_1" data-name="Tracé 1">
            <path id="Tracé_1-2" data-name="Tracé 1" d="M569.406,980.917H467.777V703.6h280.43a89.858,89.858,0,0,0,33.01-15.586,79.489,79.489,0,0,0,22.621-26.391c6.834-12.911,10.3-28.145,10.3-45.279,0-17.789-2.341-33.4-6.957-46.407a77.873,77.873,0,0,0-16.944-28.183c-12.857-13.4-28.715-19.206-42.532-23.118-4.994-1.414-31.1-3.1-127.14-3.1-131.7,0-319.869,3.177-321.754,3.21H285.672V746.43H178.208V180.547H282.046V420.639H547.37V180.547H649.387V425.127H748.5a143.9,143.9,0,0,1,25.313,3.154,183.092,183.092,0,0,1,55.728,21.2,159.254,159.254,0,0,1,56.9,56.985c17.472,29.657,26.983,66.6,28.269,109.8v.117c-.4,38.421-10.554,71.461-30.192,98.2-16.467,22.424-39.736,40.63-69.161,54.112-52.322,23.974-111.735,27.553-142.493,27.553-11.45,0-18.561-.493-19.578-.568H569.406V980.917Z" transform="translate(-175.297 -177.636)" fill="#323232"/>
            <path id="Tracé_2" data-name="Tracé 2" d="M183.529,185.868V745.93H285.172V518.249h16s188.549-3.209,321.8-3.21c66.639,0,119.431.8,127.933,3.21,25.5,7.223,68.55,23.018,68.55,100.509s-68.55,90.167-68.55,90.167H473.1V980.417h95.808V795.176h86.9s256.378,19.945,258.4-176.418c-5.573-187.221-163.3-188.31-163.3-188.31H648.887V185.868H552.692V425.961H281.546V185.868H183.529m-5.821-5.821H287.367V420.139h259.5V180.047H654.708V424.627h96.24A147.193,147.193,0,0,1,776.8,427.84a186.032,186.032,0,0,1,56.626,21.542A162.138,162.138,0,0,1,891.36,507.4c17.723,30.084,27.369,67.493,28.67,111.189l0,.116v.117c-.4,39.043-10.75,72.653-30.756,99.895-16.764,22.828-40.414,41.344-70.294,55.035-52.824,24.2-112.71,27.818-143.706,27.818-11.184,0-18.3-.469-19.683-.569H574.727V986.239H467.277V703.1H750.308a87.412,87.412,0,0,0,31.755-15.141,76.576,76.576,0,0,0,21.683-25.42c6.563-12.458,9.89-27.189,9.89-43.785,0-17.457-2.284-32.743-6.789-45.433a74.986,74.986,0,0,0-16.3-27.142c-12.374-12.9-27.783-18.527-41.224-22.333-3.943-1.117-25.6-2.99-126.347-2.99-131.681,0-319.819,3.177-321.7,3.209H290.993V751.751H177.708Z" transform="translate(-177.708 -180.047)" fill="#313231"/>
          </g>
          <path id="Tracé_2-2" data-name="Tracé 2" d="M276.759,347.8,404.007,531.176H526.179l-144.2-198.6Z" transform="translate(270.742 258.459)" fill="#323232" stroke="#313231" stroke-width="1"/>
        </g>
      </g>
      <text id="NETWORK" transform="translate(1312.706 506.083)" fill="#323232" stroke="#323233" stroke-width="1" font-size="346" font-family="Avenir-Book, Avenir"><tspan x="0" y="0">NETWORK</tspan></text>
      <line id="Ligne_1" data-name="Ligne 1" y2="576.309" transform="translate(1149.709 113.513)" fill="none" stroke="#323232" stroke-width="3"/>
    </g>
  </g>
</svg>
