<svg xmlns="http://www.w3.org/2000/svg" width="528.5" height="138.49" viewBox="0 0 528.5 138.49">
  <g id="Groupe_3" data-name="Groupe 3" transform="translate(-183 -231)">
    <g id="Groupe_2" data-name="Groupe 2" transform="translate(0.292 -0.046)">
      <g id="Groupe_1" data-name="Groupe 1">
        <g id="Tracé_1" data-name="Tracé 1" transform="translate(5 51)" fill="#323232" stroke-linecap="round">
          <path d="M 245.4088592529297 318.0363159179688 L 244.9088592529297 318.0363159179688 L 228.4507141113281 318.0363159179688 L 227.9507141113281 318.0363159179688 L 227.9507141113281 317.5363159179688 L 227.9507141113281 270.8987121582031 L 227.9507141113281 270.3987121582031 L 228.4507141113281 270.3987121582031 L 276.1237182617188 270.3987121582031 C 276.4846801757812 270.3227233886719 279.1607360839844 269.7084045410156 281.7943420410156 267.7213745117188 C 283.4362487792969 266.4825744628906 284.7436828613281 264.9572448730469 285.6802368164062 263.1877746582031 C 286.8541564941406 260.9699096679688 287.4494018554688 258.3529663085938 287.4494018554688 255.4096374511719 C 287.4494018554688 252.3537292480469 287.0473327636719 249.6716003417969 286.2543334960938 247.4377593994141 C 285.5783996582031 245.5336456298828 284.59912109375 243.9047546386719 283.3436584472656 242.5963287353516 C 281.1350708007812 240.2945556640625 278.4109497070312 239.297119140625 276.0374755859375 238.6249847412109 C 275.1796569824219 238.3820648193359 270.6942443847656 238.0924987792969 254.1970062255859 238.0924987792969 C 231.5724182128906 238.0924987792969 199.2490844726562 238.6383056640625 198.9252319335938 238.6438140869141 L 198.9209747314453 238.6438903808594 L 198.9167327880859 238.6438903808594 L 196.668212890625 238.6438903808594 L 196.668212890625 277.2554931640625 L 196.668212890625 277.7554931640625 L 196.168212890625 277.7554931640625 L 178.707763671875 277.7554931640625 L 178.207763671875 277.7554931640625 L 178.207763671875 277.2554931640625 L 178.207763671875 181.0464172363281 L 178.207763671875 180.5464172363281 L 178.707763671875 180.5464172363281 L 195.5453491210938 180.5464172363281 L 196.0453491210938 180.5464172363281 L 196.0453491210938 181.0464172363281 L 196.0453491210938 221.7902221679688 L 241.6235809326172 221.7902221679688 L 241.6235809326172 181.0464172363281 L 241.6235809326172 180.5464172363281 L 242.1235809326172 180.5464172363281 L 258.648193359375 180.5464172363281 L 259.148193359375 180.5464172363281 L 259.148193359375 181.0464172363281 L 259.148193359375 222.5612030029297 L 276.1737060546875 222.5612030029297 C 276.248291015625 222.5617065429688 277.9488220214844 222.5792541503906 280.5220336914062 223.1029968261719 C 282.8908081054688 223.5851287841797 286.4744873046875 224.6082153320312 290.0951232910156 226.7442779541016 C 294.1713562011719 229.1491088867188 297.4601135253906 232.442626953125 299.8700866699219 236.5333251953125 C 302.8714599609375 241.6278533935547 304.5052795410156 247.9737548828125 304.7261657714844 255.3947601318359 L 304.7264404296875 255.40478515625 L 304.7263488769531 255.4148101806641 C 304.6582641601562 262.0149230957031 302.9132995605469 267.6905822753906 299.5399475097656 272.2841796875 C 296.7111511230469 276.13623046875 292.7138977050781 279.263671875 287.6593017578125 281.5796508789062 C 278.6712036132812 285.6978759765625 268.4651489257812 286.3127746582031 263.181396484375 286.3127746582031 C 261.2145080566406 286.3127746582031 259.9928894042969 286.22802734375 259.8182678222656 286.2151184082031 L 245.4088592529297 286.2151184082031 L 245.4088592529297 317.5363159179688 L 245.4088592529297 318.0363159179688 Z" stroke="none"/>
          <path d="M 178.707763671875 181.0464172363281 L 178.707763671875 277.2554931640625 L 196.168212890625 277.2554931640625 L 196.168212890625 238.1438903808594 L 198.9167175292969 238.1438903808594 C 198.9167175292969 238.1438903808594 231.3062591552734 237.5925598144531 254.1969757080078 237.5924987792969 C 265.6444396972656 237.5924377441406 274.7131958007812 237.7302856445312 276.1737060546875 238.1438903808594 C 280.5547485351562 239.3845520019531 287.9494018554688 242.0980224609375 287.9494018554688 255.4096374511719 C 287.9494018554688 268.7212524414062 276.1737060546875 270.8987121582031 276.1737060546875 270.8987121582031 L 228.4507141113281 270.8987121582031 L 228.4507141113281 317.5363159179688 L 244.9088592529297 317.5363159179688 L 244.9088592529297 285.7151184082031 L 259.8370361328125 285.7151184082031 C 259.8369750976562 285.715087890625 303.87841796875 289.1413269042969 304.2263793945312 255.4096374511719 C 303.2691040039062 223.248291015625 276.1737060546875 223.0611877441406 276.1737060546875 223.0611877441406 L 258.648193359375 223.0611877441406 L 258.648193359375 181.0464172363281 L 242.1235809326172 181.0464172363281 L 242.1235809326172 222.2902221679688 L 195.5453491210938 222.2902221679688 L 195.5453491210938 181.0464172363281 L 178.707763671875 181.0464172363281 M 177.707763671875 180.0464172363281 L 196.5453491210938 180.0464172363281 L 196.5453491210938 221.2902221679688 L 241.1235809326172 221.2902221679688 L 241.1235809326172 180.0464172363281 L 259.648193359375 180.0464172363281 L 259.648193359375 222.0611877441406 L 276.1806030273438 222.0611877441406 C 276.2537231445312 222.0617065429688 278.00146484375 222.0797119140625 280.6217651367188 222.613037109375 C 283.0280151367188 223.102783203125 286.6688842773438 224.1423645019531 290.3491821289062 226.3136291503906 C 294.4992065429688 228.7619934082031 297.847412109375 232.114990234375 300.3009033203125 236.279541015625 C 303.3454895019531 241.4474487304688 305.0025329589844 247.8737335205078 305.2259521484375 255.3798980712891 L 305.2265319824219 255.3999176025391 L 305.226318359375 255.4199523925781 C 305.1571655273438 262.1268920898438 303.3795471191406 267.9004211425781 299.9429321289062 272.5801391601562 C 297.0631713867188 276.5015869140625 293.0004577636719 279.682373046875 287.8675537109375 282.0342102050781 C 278.793212890625 286.1919555664062 268.5058898925781 286.8128051757812 263.181396484375 286.8128051757812 C 261.2601928710938 286.8128051757812 260.0374755859375 286.732177734375 259.8001403808594 286.7151184082031 L 245.9088592529297 286.7151184082031 L 245.9088592529297 318.5363159179688 L 227.4507141113281 318.5363159179688 L 227.4507141113281 269.8987121582031 L 276.0706176757812 269.8987121582031 C 276.5430297851562 269.7939453125 279.0585327148438 269.170166015625 281.5255737304688 267.2977294921875 C 283.1004638671875 266.1024169921875 284.3536376953125 264.6332702636719 285.2503662109375 262.9310913085938 C 286.3777465820312 260.791015625 286.9494018554688 258.2604370117188 286.9494018554688 255.4096374511719 C 286.9494018554688 252.4108734130859 286.5570068359375 249.7850189208984 285.7831420898438 247.6050262451172 C 285.1310729980469 245.7681427001953 284.1889038085938 244.1994323730469 282.9828491210938 242.9425048828125 C 280.8571166992188 240.72705078125 278.2101440429688 239.7599182128906 275.9012451171875 239.1060485839844 C 275.223876953125 238.9142456054688 271.50341796875 238.5924377441406 254.1969757080078 238.5924682617188 C 231.5764312744141 238.5925598144531 199.2575378417969 239.1382446289062 198.9337158203125 239.1437377929688 L 198.9167175292969 239.1438903808594 L 197.168212890625 239.1438903808594 L 197.168212890625 278.2554931640625 L 177.707763671875 278.2554931640625 L 177.707763671875 180.0464172363281 Z" stroke="none" fill="#313231"/>
        </g>
        <path id="Tracé_2" data-name="Tracé 2" d="M276.759,335.192l21.859,31.5h20.987l-24.771-34.116Z" fill="#323232" stroke="#313231" stroke-width="1"/>
      </g>
    </g>
    <text id="NETWORK" transform="translate(408.5 319.5)" fill="#323232" stroke="#323233" stroke-width="1" font-size="61" font-family="Avenir-Book, Avenir"><tspan x="0" y="0">NETWORK</tspan></text>
    <line id="Ligne_1" data-name="Ligne 1" y2="99" transform="translate(380.5 250.5)" fill="none" stroke="#323232" stroke-width="3"/>
  </g>
</svg>
