<?xml version="1.0" encoding="UTF-8" standalone="no"?>
<!DOCTYPE svg PUBLIC "-//W3C//DTD SVG 1.1//EN" "http://www.w3.org/Graphics/SVG/1.1/DTD/svg11.dtd">
<svg width="100%" height="100%" viewBox="0 0 9884 7909" version="1.1" xmlns="http://www.w3.org/2000/svg" xmlns:xlink="http://www.w3.org/1999/xlink" xml:space="preserve" xmlns:serif="http://www.serif.com/" style="fill-rule:evenodd;clip-rule:evenodd;stroke-linejoin:round;stroke-miterlimit:1.41421;">
    <g transform="matrix(4.16667,0,0,4.16667,-81.3727,-156.487)">
        <path d="M2131.69,1670.38C2131.69,1679.55 2118.25,1686.99 2101.67,1686.99L267.246,1686.99C250.665,1686.99 237.232,1679.55 237.232,1670.38C237.232,1661.21 250.665,1653.77 267.246,1653.77L2101.67,1653.77C2118.25,1653.77 2131.69,1661.21 2131.69,1670.38Z" style="fill:rgb(115,138,164);fill-rule:nonzero;"/>
        <path d="M986.12,1467.13C986.12,1467.13 1000.12,1482.73 992.916,1506.09C980.412,1546.63 986.33,1553.56 988.18,1556.47C990.029,1559.38 1029.13,1526.25 1044.41,1503.58C1057.88,1483.6 1049.37,1479.2 1042.8,1472.76C1036.24,1466.31 1020.02,1447.22 1016.9,1441.03L986.12,1467.13Z" style="fill:rgb(168,210,230);fill-rule:nonzero;"/>
        <path d="M988.147,1523.49C988.147,1523.49 969.449,1577.77 975.387,1594.82C975.387,1594.82 980.929,1608.23 998.82,1598.91C1025.51,1585.02 1049.48,1551.4 1054.84,1535.75C1054.84,1535.75 1059.17,1528.1 1061.51,1526C1063.85,1523.9 1076.31,1511.69 1075.28,1506.23C1075.28,1506.23 1059.74,1481.39 1042.8,1472.76C1042.8,1472.76 1034.97,1493.86 1017.51,1504.96C1017.51,1504.96 1020.18,1494.69 1015.14,1495.43L994.092,1501.45C994.092,1501.45 984.832,1499.79 988.147,1523.49Z" style="fill:rgb(17,21,55);fill-rule:nonzero;"/>
        <path d="M882.851,1552.05C882.851,1552.05 886.296,1572.72 867.685,1588.58C835.39,1616.09 836.667,1625.12 836.667,1628.56C836.667,1632 887.437,1625.02 912.488,1614.08C934.585,1604.43 929.753,1596.16 927.67,1587.2C925.586,1578.24 922.141,1553.42 922.83,1546.53L882.851,1552.05Z" style="fill:rgb(168,210,230);fill-rule:nonzero;"/>
        <path d="M834.245,822.782L816.697,1108.15C816.697,1108.15 966.943,1463.82 975.215,1487.26C975.215,1487.26 1022.11,1484.49 1038.64,1427.97L953.225,1073.68L983.486,837.947L834.245,822.782Z" style="fill:rgb(17,21,55);fill-rule:nonzero;"/>
        <path d="M1017.37,807.497C1017.37,807.497 1030.69,901.548 1021.62,943.431C1012.55,985.314 984.862,1128.55 984.862,1128.55C984.862,1128.55 978.998,1174.96 978.998,1203.28C978.998,1231.57 940.8,1556.39 940.8,1556.39C940.8,1556.39 906.336,1572.24 867.367,1556.39C867.367,1556.39 844.388,1164.41 844.388,1131.19C844.388,1083.64 891.756,790.001 891.756,790.001L1017.37,807.497Z" style="fill:rgb(42,43,78);fill-rule:nonzero;"/>
        <path d="M525.626,405.072C525.626,405.072 471.604,366.038 456.869,364.229C456.869,364.229 452.732,364.491 456.869,371.207C461.003,377.924 485.56,398.383 487.112,403.013C487.112,403.013 488.403,409.463 487.627,410.236C487.627,410.236 469.558,407.523 463.332,408.689C459.192,409.463 462.298,414.115 465.141,415.923C467.981,417.737 481.395,420.586 489.166,424.715C496.933,428.855 510.633,434.792 514.77,434.792C518.904,434.792 525.626,405.072 525.626,405.072Z" style="fill:rgb(249,171,146);fill-rule:nonzero;"/>
        <path d="M547.513,412.644L524.42,400.938C524.42,400.938 511.324,418.979 511.324,437.809L530.624,450.567L547.513,412.644Z" style="fill:rgb(168,210,230);fill-rule:nonzero;"/>
        <path d="M816.697,518.34C818.1,505.556 819.919,460.012 822.218,456.82C822.218,456.82 867.65,444.362 871.027,437.123C876.216,426.017 883.453,394.897 885.435,362.159C885.92,353.999 939.929,319.617 939.929,319.617C939.929,319.617 938.719,397.969 956.583,433.387C956.583,433.387 1016.9,442.195 1030.46,455.747C1033.98,459.277 1036.81,466.102 1038.64,475.079L816.697,518.34Z" style="fill:rgb(247,155,132);fill-rule:nonzero;"/>
        <path d="M873.778,429.922C906.132,442.325 943.85,398.819 940.699,371.104C940.655,370.33 940.62,369.584 940.582,368.827C940.558,368.336 940.53,367.83 940.506,367.335C940.467,366.479 940.432,365.651 940.397,364.818C940.38,364.469 940.367,364.131 940.353,363.783C940.315,362.857 940.28,361.964 940.25,361.081C940.242,360.885 940.234,360.678 940.228,360.487C940.195,359.523 940.165,358.581 940.136,357.66C940.136,357.66 940.133,357.562 940.133,357.524L940.13,357.513L935.064,357.513L882.848,383.137C881.524,401.368 876.943,416.359 873.778,429.922Z" style="fill:rgb(245,139,119);fill-rule:nonzero;"/>
        <path d="M790.886,816.256C790.886,816.256 874.421,822.951 1026.12,807.497" style="fill:rgb(42,43,78);fill-rule:nonzero;"/>
        <path d="M958.097,433.452C958.097,433.452 894.597,464.958 888.448,464.076C882.828,463.291 871.49,452.386 863.311,440.478L846.531,446.944L806.492,828.981C806.492,828.981 883.087,882.82 1005.75,831.078L958.097,433.452Z" style="fill:rgb(198,216,240);fill-rule:nonzero;"/>
        <path d="M881.35,505.746L898.9,505.354C898.9,505.354 917.527,584.632 894.57,701.114C887.829,735.312 881.916,756.599 881.916,756.599C881.916,756.599 859.801,739.375 860.146,693.194C860.493,647.013 886.029,568.465 881.35,505.746Z" style="fill:rgb(1,2,33);fill-rule:nonzero;"/>
        <path d="M874.26,474.595C874.26,474.595 878.441,501.884 882.232,507.403C882.232,507.403 893.606,510.154 897.74,509.124L909.258,474.595L888.448,464.076L883.91,462.616L874.26,474.595Z" style="fill:rgb(1,2,33);fill-rule:nonzero;"/>
        <path d="M888.448,464.076L855.04,494.504L855.04,447.026L871.027,437.123L888.448,464.076Z" style="fill:rgb(168,210,230);fill-rule:nonzero;"/>
        <path d="M888.448,464.076L944.959,505.354L953.225,435.849C953.225,435.849 923.78,452.321 888.448,464.076Z" style="fill:rgb(168,210,230);fill-rule:nonzero;"/>
        <path d="M953.936,431.948C955.273,429.682 958.326,429.105 958.326,429.105C971.443,429.715 998.431,441.405 1038.64,454.87C1038.64,454.87 1054.2,453.661 1053.45,527.077C1052.68,602.771 1064.87,739.114 1054.48,876.54C1054.48,876.54 1020.63,921.005 952.386,921.005C952.386,921.005 929.119,563.148 953.936,431.948Z" style="fill:rgb(36,57,117);fill-rule:nonzero;"/>
        <path d="M960.459,777.287L847.711,770.685L847.711,611.263L960.459,619.559L960.459,777.287Z" style="fill:rgb(224,27,123);fill-rule:nonzero;"/>
        <path d="M871.027,437.123L838.745,442.146C838.745,442.146 837.067,442.396 834.289,442.843L828.929,443.665C828.118,443.486 827.317,443.638 826.527,444.068C815.529,445.828 799.542,448.475 789.108,450.567C771.873,453.999 679.86,470.601 679.86,470.601L543.03,407.676C543.03,407.676 529.246,420.303 520.971,450.545C520.971,450.545 635.173,521.287 646.079,527.519C668.826,540.521 683.556,548.104 707.081,548.267C739.236,548.485 785.134,548.681 803.968,548.746C791.622,663.169 785.338,829.983 785.338,829.983C793.332,853.547 811.506,879.715 841.294,882.82C841.294,882.82 822.815,598.01 871.027,437.123Z" style="fill:rgb(36,57,117);fill-rule:nonzero;"/>
        <path d="M842.977,279.548C842.977,279.548 833.42,317.983 834.302,354.403C835.289,395.077 851.488,409.893 865.504,414.322C865.504,414.322 868.835,416.904 882.134,416.609C898.511,416.244 930.698,396.389 943.047,366.038C943.047,366.038 951.509,369.84 958.533,355.797C965.549,341.744 964.413,318.811 946.999,330.381C946.999,330.381 961.128,267.264 933.171,259.257C905.206,251.272 852.066,233.781 842.977,279.548Z" style="fill:rgb(249,171,146);fill-rule:nonzero;"/>
        <path d="M974.357,249.234C1001.53,302.252 968.834,342.484 950.899,369.987C943.333,381.584 946.514,394.854 944.882,394.342C941.5,382.978 939.757,380.707 940.699,371.104C940.582,368.827 942.772,366.713 943.047,366.038C943.047,366.038 949.022,370.483 958.563,353.962C965.32,342.266 962.621,319.04 948.494,331.111C946.914,332.794 945.163,334.401 943.712,335.022C940.231,336.525 930.736,315.107 936.249,301.838C936.249,301.838 940.653,285.578 937.654,274.961C937.654,274.961 904.506,287.131 877.234,284.287C877.234,284.287 859.599,282.381 851.208,270.756C851.208,270.756 844.156,278.567 840.376,290.197C840.376,290.197 815.967,249.61 838.745,225.164C857.513,205.02 880.824,211.154 881.426,211.497C882.031,211.84 895.343,213 915.381,216.208C945.337,220.996 961.273,223.709 974.357,249.234Z" style="fill:rgb(37,59,120);fill-rule:nonzero;"/>
        <path d="M834.845,261.115C834.845,261.115 830.397,302.774 835.711,317.629C835.711,317.629 838.641,294.429 844.388,280.856L834.845,261.115Z" style="fill:rgb(37,59,120);fill-rule:nonzero;"/>
        <path d="M919.395,733.503C919.395,733.503 886.685,743.635 877.681,743.58C868.679,743.542 846.256,727.435 845.05,723.666C843.852,719.907 838.753,709.209 842.882,704.464C847.014,699.714 848.215,703.478 851.633,706.202C855.051,708.925 878.808,708.963 878.808,708.963C878.808,708.963 864.616,701.229 866.266,698.325C867.911,695.416 883.962,699.828 887.548,700.58C891.133,701.348 915.062,707.76 918.393,709.721L919.395,733.503Z" style="fill:rgb(249,171,146);fill-rule:nonzero;"/>
        <path d="M935.236,700.831L914.555,707.318C914.555,707.318 907.665,725.844 912.145,737.959L936.959,735.932L935.236,700.831Z" style="fill:rgb(168,210,230);fill-rule:nonzero;"/>
        <path d="M1015.19,547.75L1062.76,649.083L929.429,698.848C929.429,698.848 921.517,726.487 929.429,740.061C929.429,740.061 1097.91,718.349 1123.76,694.572C1136.14,683.177 1136.88,663.06 1135.85,652.416C1134.82,641.778 1095.84,458.057 1041.22,455.949" style="fill:rgb(36,57,117);fill-rule:nonzero;"/>
        <path d="M854.329,1600.71C854.329,1600.71 809.442,1636.49 805.305,1654.07C805.305,1654.07 802.788,1668.35 822.883,1670.09C852.867,1672.67 891.122,1657.17 904.045,1646.83C904.045,1646.83 911.802,1642.69 914.901,1642.18C918.004,1641.65 935.064,1638.05 937.131,1632.87C937.131,1632.87 937.335,1603.58 927.67,1587.2C927.67,1587.2 909.735,1600.82 889.055,1600.82C889.055,1600.82 896.809,1593.58 892.157,1591.51L871.163,1585.3C871.163,1585.3 864.24,1578.92 854.329,1600.71Z" style="fill:rgb(17,21,55);fill-rule:nonzero;"/>
        <path d="M1939.09,299.092C1933.63,293.634 1886.13,295.824 1878.49,299.092C1870.85,302.372 1859.64,319.084 1859.64,319.084C1835.12,348.275 1736.02,466.778 1724.25,480.847L1659.89,500.158L1686.85,537.34L1749.64,513.885C1781.12,505.376 1850.36,370.412 1868.66,333.763C1881.21,335.659 1888.86,323.114 1888.86,323.114C1927.63,323.114 1944.55,304.562 1939.09,299.092Z" style="fill:rgb(249,171,146);fill-rule:nonzero;"/>
        <path d="M1544.91,1667.32C1544.91,1667.32 1548.36,1664.98 1547.34,1661.79C1546.32,1658.57 1527.09,1633.03 1527.09,1633.03L1483.34,1598.73C1483.34,1598.73 1472.78,1601.37 1476.43,1654.75L1479.32,1655.31L1485.32,1632.2C1485.32,1632.2 1495.21,1663.95 1544.91,1667.32Z" style="fill:rgb(239,75,130);fill-rule:nonzero;"/>
        <path d="M1502.18,1595.74C1525.82,1485.61 1566.16,1227.73 1566.16,1227.73L1508.34,1227.73C1475.36,1277.23 1485.64,1431.93 1481.93,1538.57C1480.67,1574.64 1481.93,1601.31 1481.93,1601.31C1484.1,1607.68 1486.18,1611.4 1488.12,1613.33C1504.73,1638.75 1533.62,1644.47 1531.27,1640.36C1527.15,1633.11 1502.75,1596.59 1502.18,1595.74Z" style="fill:rgb(249,171,146);fill-rule:nonzero;"/>
        <path d="M1019.38,1093.47C1019.38,1093.47 1019.87,1097.61 1023.18,1098.17C1026.5,1098.73 1058.02,1093.36 1058.02,1093.36L1108.55,1070.2C1108.55,1070.2 1111.06,1059.61 1061.94,1038.37L1060.12,1040.69L1077.91,1056.61C1077.91,1056.61 1045.15,1050.85 1019.38,1093.47Z" style="fill:rgb(239,75,130);fill-rule:nonzero;"/>
        <path d="M1335.46,1172.06L1328.17,1189.11C1296.88,1140.39 1256.91,1152.63 1163.84,1100.44C1132.35,1082.78 1106.92,1067.76 1106.92,1067.76C1100.26,1066.78 1096,1066.92 1093.4,1067.76C1063.19,1070.86 1044.85,1093.91 1049.58,1093.71C1057.91,1093.37 1101.45,1088.45 1102.57,1088.32C1187.92,1158.68 1334.37,1268.87 1334.37,1268.87C1334.37,1268.87 1358.75,1285.25 1370.04,1282.34C1381.32,1279.42 1434.46,1176.06 1434.46,1176.06L1335.46,1172.06Z" style="fill:rgb(249,171,146);fill-rule:nonzero;"/>
        <path d="M1387.61,914.73C1387.61,914.73 1329.27,1031.2 1310.35,1150.58C1310.35,1150.58 1308.89,1178.24 1336.55,1184.06C1364.22,1189.89 1431.79,1214.64 1462.79,1246.67C1493.78,1278.7 1533.71,1299.08 1566.16,1287.43C1566.16,1287.43 1594.86,1038.48 1566.16,914.73L1387.61,914.73Z" style="fill:rgb(239,75,130);fill-rule:nonzero;"/>
        <path d="M1568.96,338.66C1568.96,338.66 1575.57,419.496 1587.69,436.628C1606.61,463.39 1629.03,495.669 1616.88,517.294C1604.73,538.909 1553.37,539.148 1511.98,524.234C1511.98,524.234 1532.03,347.844 1568.96,338.66Z" style="fill:rgb(37,59,120);fill-rule:nonzero;"/>
        <path d="M1327.82,725.474C1327.82,725.474 1290.98,796.194 1283.78,798.27C1245.93,809.186 1264.85,753.135 1264.85,753.135L1312.53,638.129L1327.82,725.474Z" style="fill:rgb(249,171,146);fill-rule:nonzero;"/>
        <path d="M1549.62,525.803C1536.17,520.312 1523.99,514.359 1523.78,510.769C1523.78,510.769 1519.1,463.362 1516.35,435.925C1515.52,427.672 1465.88,399.69 1465.88,399.69C1465.88,399.69 1464.2,482.874 1451.35,511.488C1451.35,511.488 1436.6,516.107 1414.23,523.581L1414.23,601.279L1549.62,601.279L1549.62,525.803Z" style="fill:rgb(229,149,121);fill-rule:nonzero;"/>
        <path d="M1465.41,413.189C1464.99,423.043 1464.19,437.254 1462.79,452.114C1473.8,474.627 1502.76,527.633 1524.46,512.272C1524.06,511.738 1523.81,511.232 1523.78,510.769C1523.78,510.769 1520.63,478.821 1517.97,452.201L1469.55,411.767L1465.41,413.189Z" style="fill:rgb(211,121,100);fill-rule:nonzero;"/>
        <path d="M1579.82,918.755C1579.82,918.755 1582.93,932.553 1574.89,934.748C1441.48,971.315 1367.77,929.644 1367.77,929.644C1366.8,923.314 1402.43,799.686 1402.43,799.686C1399.58,765.51 1399.69,722.315 1373.42,665.528C1356.73,629.446 1354.43,566.384 1354.43,566.384C1352.11,530.858 1451.35,511.488 1451.35,511.488C1483.74,566.406 1509.22,569.358 1509.22,569.358C1536.05,525.324 1524.88,512.795 1524.88,512.795C1541.1,511.488 1554.9,508.873 1560.75,515.029C1574.1,529.022 1610.56,630.486 1610.56,630.486C1610.56,630.486 1633.91,673.061 1590.9,706.191C1590.9,706.191 1585.99,743.232 1572.83,785.306C1563.47,815.216 1579.82,918.755 1579.82,918.755Z" style="fill:rgb(198,216,240);fill-rule:nonzero;"/>
        <path d="M1540.72,487.281C1540.72,487.281 1536.54,490.592 1527,489.307C1518.94,488.229 1475.45,466.484 1464.07,435.266C1464.07,435.266 1452.26,438.534 1445.67,424.012C1439.08,409.506 1443.39,387.783 1460.62,400.17C1460.62,400.17 1449.46,334.455 1478.09,327.396C1506.75,320.358 1561.27,304.605 1568.76,351.33C1568.76,351.33 1574.1,393.306 1569.84,429.595C1569.84,429.595 1564.8,462.322 1540.72,487.281Z" style="fill:rgb(249,171,146);fill-rule:nonzero;"/>
        <path d="M1569.23,355.449C1571.56,344.805 1568.26,327.107 1557.89,315.32C1536.4,290.834 1465.67,268.261 1432.6,324.084C1408.48,364.763 1429.07,425.423 1447.38,440.293C1459.96,450.523 1454.5,460.094 1454.38,468.232C1454.29,473.543 1458.64,473.358 1460.3,472.9C1461.61,463.39 1465.47,447.08 1464.87,437.303C1464.6,436.628 1464.33,435.952 1464.07,435.266C1464.07,435.266 1452.26,438.534 1445.67,424.012C1439.18,409.735 1443.27,388.459 1459.86,399.658C1461.4,401.401 1463.12,403.117 1464.56,403.798C1468.04,405.476 1516.3,375.614 1543.69,328.18C1543.69,328.18 1559.21,335.659 1569.23,355.449Z" style="fill:rgb(37,59,120);fill-rule:nonzero;"/>
        <path d="M1310.5,765.51L1310.17,764.781L1379.5,670.883C1379.5,670.883 1403.82,578.651 1368.25,543.103C1368.25,543.103 1343.14,550.059 1260.12,753.135L1310.5,765.51Z" style="fill:rgb(198,216,240);fill-rule:nonzero;"/>
        <path d="M1249.88,563.999C1252.42,560.174 1255.85,553.006 1254.66,543.103C1252.84,527.84 1248.84,484.165 1242.29,484.535C1235.74,484.906 1228.46,498.366 1227,536.588C1227,536.588 1225.23,556.405 1233.81,564.44C1235.07,593.228 1242.48,755.28 1251.09,786.515C1258.67,814.001 1289.17,813.544 1291.6,786.515C1291.6,786.515 1270.9,654.949 1249.88,563.999Z" style="fill:rgb(249,171,146);fill-rule:nonzero;"/>
        <path d="M1537.82,512.011L1705.61,484.53C1705.61,484.53 1721.63,494.694 1714.55,528.712L1587.69,596.627L1537.82,512.011Z" style="fill:rgb(198,216,240);fill-rule:nonzero;"/>
        <path d="M1481.93,388.453C1481.93,388.453 1503.55,558.148 1414.23,521.336L1380.2,535.434C1380.2,535.434 1390.42,514.081 1410.8,496.748C1431.18,479.437 1434.64,425.575 1423.45,388.453L1481.93,388.453Z" style="fill:rgb(37,59,120);fill-rule:nonzero;"/>
        <path d="M236.878,1462.45C236.878,1462.45 223.829,1475.77 229.317,1496.81C238.844,1533.31 233.318,1539.25 231.564,1541.74C229.805,1544.27 196.353,1513.31 183.667,1492.58C172.476,1474.28 180.211,1470.72 186.295,1465.24C192.38,1459.78 207.534,1443.44 210.538,1438.07L236.878,1462.45Z" style="fill:rgb(168,210,230);fill-rule:nonzero;"/>
        <path d="M232.877,1512.45C232.877,1512.45 250.155,1557.42 244.215,1572.33C244.215,1572.33 238.765,1584.04 223.235,1575.07C200.063,1561.67 180.078,1530.88 175.927,1516.75C175.927,1516.75 172.381,1509.8 170.382,1507.83C168.382,1505.88 157.793,1494.55 158.921,1489.73C158.921,1489.73 170.907,1472.25 186.295,1465.24C186.295,1465.24 192.434,1484.31 207.509,1494.84C207.509,1494.84 205.546,1485.61 209.988,1486.48L228.451,1492.64C228.451,1492.64 236.747,1491.52 232.877,1512.45Z" style="fill:rgb(17,21,55);fill-rule:nonzero;"/>
        <path d="M298.45,277.565C298.45,277.565 268.43,294.746 273.24,345.753C278.05,396.76 258.415,425.739 244.629,430.527C230.845,435.304 177.259,443.093 191.634,488.076C201.076,517.637 206.583,547.504 189.46,554.76C172.334,562.01 113.056,616.563 146.142,667.178C179.225,717.793 335.101,730.202 372.964,686.08C410.827,641.969 298.45,277.565 298.45,277.565Z" style="fill:rgb(239,75,130);fill-rule:nonzero;"/>
        <path d="M399.045,1579.04C399.045,1579.04 395.978,1597.43 412.529,1611.53C441.249,1636.01 440.114,1644.02 440.114,1647.08C440.114,1650.14 394.965,1643.94 372.686,1634.21C353.036,1625.63 357.333,1618.27 359.185,1610.3C361.038,1602.33 364.104,1580.27 363.489,1574.14L399.045,1579.04Z" style="fill:rgb(168,210,230);fill-rule:nonzero;"/>
        <path d="M433.033,856.478L450.118,1136.88C450.118,1136.88 250.534,1456.42 238.547,1477.91C238.547,1477.91 212.485,1477.5 202.147,1441.71L328.191,1100.01L297.785,849.44L433.033,856.478Z" style="fill:rgb(17,21,55);fill-rule:nonzero;"/>
        <path d="M254.295,834.09C254.295,834.09 228.881,879.781 260.471,971.053C274.349,1011.15 325.737,1165.59 325.737,1165.59C325.737,1165.59 331.544,1211.55 331.544,1239.57C331.544,1267.59 351.491,1581.61 351.491,1581.61C351.491,1581.61 374.612,1593.63 413.194,1577.94C413.194,1577.94 435.949,1189.83 435.949,1156.94C435.949,1109.87 389.046,819.148 389.046,819.148L254.295,834.09Z" style="fill:rgb(42,43,78);fill-rule:nonzero;"/>
        <path d="M424.407,1622.31C424.407,1622.31 464.326,1649.28 468.006,1664.91C468.006,1664.91 470.245,1677.61 452.376,1679.16C425.709,1681.46 391.686,1667.66 380.192,1658.46C380.192,1658.46 373.299,1654.79 370.537,1654.33C367.781,1653.88 352.608,1650.65 350.769,1646.06C350.769,1646.06 350.59,1624.86 359.185,1610.3C359.185,1610.3 375.135,1622.41 393.524,1622.41C393.524,1622.41 386.631,1615.97 390.768,1614.13L409.435,1608.62C409.435,1608.62 415.593,1602.95 424.407,1622.31Z" style="fill:rgb(17,21,55);fill-rule:nonzero;"/>
        <path d="M825.031,416.822C820.933,410.285 774.15,401.804 765.968,403.286C757.787,404.767 743.126,418.554 743.126,418.554L743.218,418.826C716.241,441.498 615.856,530.673 586.936,556.405L524.109,531.283L522.075,577.17L583.001,596.976C586.337,598.751 590.812,599.939 596.801,600.19C628.438,601.562 724.79,469.49 749.332,435.097C760.842,439.084 770.71,429.013 770.71,429.013C808.491,437.679 829.133,423.364 825.031,416.822Z" style="fill:rgb(249,171,146);fill-rule:nonzero;"/>
        <path d="M228.881,687.268C228.881,687.268 216.764,764.448 203.489,776.111C171.258,804.425 177.809,726.743 177.809,726.743L195.131,605.266L228.881,687.268Z" style="fill:rgb(249,171,146);fill-rule:nonzero;"/>
        <path d="M415.476,479.284C402.022,473.788 389.85,467.84 389.638,464.25C389.638,464.25 384.956,416.838 382.2,389.401C381.372,381.159 331.737,353.166 331.737,353.166C331.737,353.166 330.057,436.361 317.209,464.974C317.209,464.974 302.453,469.594 280.085,477.057L280.085,554.76L415.476,554.76L415.476,479.284Z" style="fill:rgb(229,149,121);fill-rule:nonzero;"/>
        <path d="M331.268,366.67C330.841,376.529 330.046,390.735 328.641,405.595C339.66,428.113 368.615,481.109 390.319,465.764C389.913,465.22 389.665,464.713 389.638,464.25C389.638,464.25 386.484,432.297 383.828,405.677L335.406,365.248L331.268,366.67Z" style="fill:rgb(211,121,100);fill-rule:nonzero;"/>
        <path d="M437.96,840.485C437.96,840.485 441.078,854.283 433.033,856.478C299.626,893.05 246.056,842.555 246.056,842.555C245.09,836.226 268.289,753.167 268.289,753.167C265.437,718.986 265.546,675.796 239.277,619.009C222.584,582.922 220.283,519.866 220.283,519.866C217.965,484.339 317.209,464.974 317.209,464.974C349.599,519.888 375.078,522.84 375.078,522.84C401.905,478.8 390.741,466.276 390.741,466.276C406.954,464.974 420.755,462.354 426.61,468.505C439.956,482.498 476.411,583.968 476.411,583.968C476.411,583.968 499.766,626.553 456.755,659.672C456.755,659.672 451.842,696.724 438.684,738.792C429.331,768.691 437.96,840.485 437.96,840.485Z" style="fill:rgb(198,216,240);fill-rule:nonzero;"/>
        <path d="M437.344,766.044L308.587,787.996L308.587,627.218L437.344,605.266L437.344,766.044Z" style="fill:rgb(168,210,230);fill-rule:nonzero;"/>
        <path d="M318.463,804.201L453.762,786.634L453.762,627.218L318.463,646.479L318.463,804.201Z" style="fill:rgb(239,75,130);fill-rule:nonzero;"/>
        <path d="M406.578,440.762C406.578,440.762 402.395,444.068 392.852,442.788C384.798,441.71 341.308,419.976 329.929,388.742C329.929,388.742 318.114,392.01 311.523,377.499C304.932,362.988 309.249,341.264 326.473,353.662C326.473,353.662 315.314,287.937 343.947,280.877C372.602,273.839 427.131,258.086 434.621,304.823C434.621,304.823 439.953,346.782 435.693,383.076C435.693,383.076 430.663,415.803 406.578,440.762Z" style="fill:rgb(249,171,146);fill-rule:nonzero;"/>
        <path d="M435.084,308.935C437.412,298.286 434.111,280.583 423.745,268.795C402.259,244.316 331.525,221.743 298.45,277.565C274.343,318.245 294.928,378.915 313.234,393.785C325.813,404.015 320.358,413.57 320.233,421.719C320.148,427.024 324.495,426.834 326.156,426.381C327.467,416.882 331.329,400.562 330.727,390.779C330.455,390.114 330.182,389.439 329.929,388.742C329.929,388.742 318.114,392.01 311.523,377.499C305.032,363.211 309.123,341.94 325.715,353.139C327.257,354.882 328.975,356.593 330.419,357.279C333.9,358.957 382.153,329.095 409.542,281.656C409.542,281.656 425.069,289.135 435.084,308.935Z" style="fill:rgb(239,75,130);fill-rule:nonzero;"/>
        <path d="M224.028,729.69L223.522,729.069L266.489,620.551C266.489,620.551 272.586,526.157 229.091,500.899C229.091,500.899 200.39,513.067 172.163,730.638L224.028,729.69Z" style="fill:rgb(198,216,240);fill-rule:nonzero;"/>
        <path d="M421.19,464.588L569.62,547.504C569.62,547.504 575.83,565.437 549.125,587.655L407.553,561.858L421.19,464.588Z" style="fill:rgb(198,216,240);fill-rule:nonzero;"/>
        <path d="M182.913,762.133C177.542,773.867 184.465,787.593 202.512,788.302C202.512,788.302 294.83,767.172 384.634,741.489C384.634,741.489 412.622,754.376 421.626,754.322C430.63,754.273 455.219,743.395 456.42,739.631C457.624,735.867 462.72,725.169 458.588,720.43C454.456,715.68 453.258,719.427 449.837,722.151C446.422,724.885 422.661,724.929 422.661,724.929C422.661,724.929 436.856,717.194 435.208,714.285C433.558,711.382 417.508,715.789 413.924,716.546C410.378,717.303 386.947,723.578 383.208,725.616C360.221,727.38 231.202,737.654 200.461,747.84" style="fill:rgb(249,171,146);fill-rule:nonzero;"/>
        <path d="M1973.46,319.786C1973.46,319.786 1907.47,369.633 1924.03,436.9C1934.72,480.287 1934.73,496.421 1921.1,503.306C1907.47,510.202 1841.6,554.313 1864.19,594.29C1886.79,634.278 1874,683.901 1864.19,691.483C1854.39,699.06 1833.44,766.72 1924.03,773.507C2014.63,780.305 1984.81,529.801 1984.81,529.801L1995.68,414.463L1973.46,319.786Z" style="fill:rgb(239,75,130);fill-rule:nonzero;"/>
        <path d="M2201.07,791.88C2201.07,791.88 2207.56,806.844 2206.93,846.286C2206.57,869.197 2155.04,888.06 2103.11,887.069L2123.84,823.654L2201.07,791.88Z" style="fill:rgb(163,195,231);fill-rule:nonzero;"/>
        <path d="M2110.67,1680.02C2110.67,1680.02 2113.79,1677.26 2112.35,1674.2C2110.91,1671.18 2088.45,1648.41 2088.45,1648.41L2040.52,1620.27C2040.52,1620.27 2030.4,1624.28 2041.13,1676.7L2044.07,1676.87L2046.94,1653.16C2046.94,1653.16 2060.98,1683.31 2110.67,1680.02Z" style="fill:rgb(37,59,120);fill-rule:nonzero;"/>
        <path d="M2093.57,1655.13C2088.45,1648.41 2058.76,1614.74 2058.76,1614.74C2058.68,1614.62 2058.61,1614.53 2058.53,1614.41C2060.53,1513.26 2073.15,1241.54 2073.15,1241.54L2015.85,1249.24C1989.76,1302.68 2020.56,1454.62 2031.09,1560.82C2034.66,1596.74 2039.46,1623 2039.46,1623C2042.46,1629.02 2045.02,1632.42 2047.2,1634.08C2067.04,1657.06 2096.44,1658.89 2093.57,1655.13Z" style="fill:rgb(249,171,146);fill-rule:nonzero;"/>
        <path d="M1960.06,1683.49C1960.06,1683.49 1963.39,1680.97 1962.2,1677.83C1961.02,1674.69 1940.48,1650.17 1940.48,1650.17L1895,1618.22C1895,1618.22 1884.59,1621.39 1891.02,1674.52L1893.94,1674.92L1898.72,1651.52C1898.72,1651.52 1910.26,1682.72 1960.06,1683.49Z" style="fill:rgb(37,59,120);fill-rule:nonzero;"/>
        <path d="M1913.63,1614.2C1913.53,1614.02 1913.44,1613.87 1913.34,1613.7C1921.94,1508.46 1958.3,1243.4 1958.3,1243.4L1900.57,1246.42C1870.22,1297.56 1888.57,1451.5 1890.44,1558.2C1891.07,1594.3 1893.72,1620.86 1893.72,1620.86C1896.22,1627.1 1898.49,1630.71 1900.53,1632.53C1918.44,1657.05 1947.59,1661.27 1945.04,1657.27C1940.48,1650.17 1913.63,1614.2 1913.63,1614.2Z" style="fill:rgb(249,171,146);fill-rule:nonzero;"/>
        <path d="M1897.42,929.502C1897.42,929.502 1880.95,967.453 1875.04,1035.34C1865.22,1148.04 1864.97,1314.39 1874,1314.39C1950.74,1314.39 1933.31,1316.07 2012.55,1290.56C2054.98,1276.91 2054.16,1326.62 2083.89,1309.17C2083.89,1309.17 2104.66,1053.25 2075.96,929.502L1897.42,929.502Z" style="fill:rgb(42,43,78);fill-rule:nonzero;"/>
        <path d="M2071.13,537.705C2071.13,537.705 2093.67,542.003 2103.8,561.847C2113.93,581.69 2194.91,765.641 2194.91,765.641C2194.91,765.641 2191.05,792.272 2165.25,801.93L2068.46,655.968C2068.46,655.968 2057.44,558.431 2071.13,537.705Z" style="fill:rgb(163,195,231);fill-rule:nonzero;"/>
        <path d="M2059.42,540.576C2045.97,535.085 2033.8,529.137 2033.59,525.541C2033.59,525.541 2028.9,478.135 2026.15,450.698C2025.32,442.445 1975.68,414.463 1975.68,414.463C1975.68,414.463 1974.01,497.663 1961.16,526.271C1961.16,526.271 1946.4,530.89 1924.03,538.353L1924.03,616.051L2059.42,616.051L2059.42,540.576Z" style="fill:rgb(229,149,121);fill-rule:nonzero;"/>
        <path d="M1975.22,427.961C1974.79,437.826 1973.99,452.027 1972.59,466.892C1983.61,489.41 2012.56,542.406 2034.27,527.045C2033.86,526.511 2033.61,526.01 2033.59,525.541C2033.59,525.541 2030.43,493.594 2027.78,466.973L1979.35,426.545L1975.22,427.961Z" style="fill:rgb(211,121,100);fill-rule:nonzero;"/>
        <path d="M2074.74,913.509C2074.74,913.509 2077.86,927.307 2069.82,929.502C1936.41,966.075 1890.01,918.641 1890.01,918.641C1889.04,912.322 1912.23,814.458 1912.23,814.458C1909.38,780.283 1909.49,737.087 1883.23,680.306C1866.53,644.219 1864.23,581.157 1864.23,581.157C1861.91,545.631 1961.16,526.271 1961.16,526.271C1988.28,582.099 2019.03,584.131 2019.03,584.131C2056.52,578.477 2034.69,527.568 2034.69,527.568C2059.42,532.056 2072.92,536.86 2078.78,543.011C2092.12,557.004 2099.43,652.901 2099.43,652.901C2099.43,652.901 2121.37,667.592 2081.29,708.751C2081.29,708.751 2082.97,748.041 2069.82,790.115C2060.46,820.015 2074.74,913.509 2074.74,913.509Z" style="fill:rgb(137,212,227);fill-rule:nonzero;"/>
        <path d="M1961.16,526.271C1961.16,526.271 1861.91,545.631 1864.23,581.157C1864.23,581.157 1866.53,644.219 1883.23,680.306C1909.49,737.087 1909.38,780.283 1912.23,814.458C1912.23,814.458 1876.6,938.087 1877.58,944.417C1877.58,944.417 1887.49,960.05 1952.54,960.508C1952.54,960.508 2005.59,733.677 1994.03,616.051L1961.16,526.271Z" style="fill:rgb(198,216,240);fill-rule:nonzero;"/>
        <path d="M2034.69,527.568C2059.42,532.056 2072.92,536.86 2078.78,543.011C2092.12,557.004 2120.36,645.259 2120.36,645.259C2120.36,645.259 2140.78,679.805 2100.7,720.964C2100.7,720.964 2095.79,758.015 2082.63,800.089C2073.28,829.988 2089.62,933.528 2089.62,933.528C2089.62,933.528 2092.74,947.325 2084.69,949.526C2066.29,954.565 2049.03,958.122 2032.94,960.508C2032.94,960.508 2069.82,690.144 2059.42,630.171C2049.58,573.346 2034.69,527.568 2034.69,527.568Z" style="fill:rgb(198,216,240);fill-rule:nonzero;"/>
        <path d="M2113.13,883.474C2113.13,883.474 2098.75,884.771 2085.57,883.474C2072.38,882.189 2048.85,880.119 2050.15,875.205L2061.26,872.438L2119.95,872.438L2113.13,883.474Z" style="fill:rgb(249,171,146);fill-rule:nonzero;"/>
        <path d="M2044.56,513.079C2044.56,513.079 2039.81,515.486 2030.71,512.36C2023.02,509.712 1984.67,479.829 1979.67,446.972C1979.67,446.972 1967.44,447.854 1963.84,432.319C1960.23,416.8 1968.74,396.357 1983.19,411.892C1983.19,411.892 1985.2,345.273 2014.66,343.988C2044.14,342.729 2100.7,338.029 2098.84,385.315C2098.84,385.315 2095.8,427.509 2084.47,462.251C2084.47,462.251 2073.09,493.343 2044.56,513.079Z" style="fill:rgb(249,171,146);fill-rule:nonzero;"/>
        <path d="M1889.31,685.655L1830.64,765.108L1991.73,832.533C1991.73,832.533 1999.13,859.627 1970.87,861.696C1970.87,861.696 1779.85,815.526 1768.81,808.456C1752,797.687 1769.93,767.918 1769.93,767.918C1852.94,564.832 1878.05,557.876 1878.05,557.876" style="fill:rgb(198,216,240);fill-rule:nonzero;"/>
        <path d="M1983.6,856.058C1981.24,857.24 1979.01,858.123 1976.92,858.749C1973.05,859.932 1969.79,860.133 1967.53,859.321C1965.26,858.515 1964.02,856.685 1964.2,853.727C1964.6,848.1 1974.83,837.239 1983.27,833.829C1986.06,832.674 1988.64,832.358 1990.63,833.317C1990.63,833.317 1990.77,833.916 1990.92,834.951C1991.6,839.374 1992.55,851.597 1983.6,856.058Z" style="fill:rgb(110,167,218);fill-rule:nonzero;"/>
        <path d="M2095.12,872.275L2089.84,872.275C2089.84,872.275 2071.15,846.978 2070.2,846.346L2051.94,840.033C2051.94,840.033 2056.76,843.143 2057.19,848.04C2057.63,852.959 2056.86,856.582 2055.83,858.123C2054.8,859.681 2042.88,870.7 2042.88,870.7L2012.86,870.7C2012.86,870.7 2006.66,868.222 2006.66,862.018C2006.66,855.813 1997.87,861.827 1991.02,857.905L1976.92,858.749L1967.53,859.321C1965.26,858.515 1964.02,856.685 1964.2,853.727C1964.6,848.1 1974.83,837.239 1983.27,833.829C1985.71,834.346 1988.33,834.809 1990.92,834.951C1992.55,835.033 1994.17,834.995 1995.67,834.809C2002.35,833.949 2007.24,831.334 2012.55,829.286C2022.91,825.309 2038.91,817.907 2047.7,821.017C2056.49,824.111 2080.64,842.097 2080.64,842.097C2080.64,842.097 2095.88,866.234 2095.12,872.275Z" style="fill:rgb(249,171,146);fill-rule:nonzero;"/>
        <path d="M1946.86,872.738C1946.86,875.783 1949.33,878.245 1952.37,878.245L2190.21,878.245C2193.25,878.245 2195.72,875.783 2195.72,872.738C2195.72,869.704 2193.25,867.231 2190.21,867.231L1952.37,867.231C1949.33,867.231 1946.86,869.704 1946.86,872.738Z" style="fill:rgb(78,149,208);fill-rule:nonzero;"/>
        <path d="M1986.16,872.738C1986.16,869.704 1988.62,867.231 1991.66,867.231L2190.21,867.231C2193.25,867.231 2195.72,869.704 2195.72,872.738C2195.72,875.783 2193.25,878.245 2190.21,878.245L1991.66,878.245C1988.62,878.245 1986.16,875.783 1986.16,872.738Z" style="fill:rgb(110,167,218);fill-rule:nonzero;"/>
        <path d="M1990.64,865.335L2193.65,865.335L2235.45,717.118L2032.44,717.118L1990.64,865.335Z" style="fill:rgb(78,149,208);fill-rule:nonzero;"/>
        <path d="M2000.09,865.335L2193.65,865.335L2235.45,717.118L2041.89,717.118L2000.09,865.335Z" style="fill:rgb(110,167,218);fill-rule:nonzero;"/>
        <path d="M2013.56,865.858C2013.56,867.285 2014.72,868.44 2016.14,868.44L2047.51,868.44C2048.94,868.44 2050.1,867.285 2050.1,865.858C2050.1,864.431 2048.94,863.265 2047.51,863.265L2016.14,863.265C2014.72,863.265 2013.56,864.431 2013.56,865.858Z" style="fill:rgb(78,149,208);fill-rule:nonzero;"/>
        <path d="M2126.45,865.858C2126.45,867.285 2127.6,868.44 2129.03,868.44L2160.4,868.44C2161.82,868.44 2162.98,867.285 2162.98,865.858C2162.98,864.431 2161.82,863.265 2160.4,863.265L2129.03,863.265C2127.6,863.265 2126.45,864.431 2126.45,865.858Z" style="fill:rgb(78,149,208);fill-rule:nonzero;"/>
        <path d="M1983.19,411.892C1983.19,411.892 1995.85,388.654 2006.72,388.371C2067.04,386.819 2099.55,382.107 2098.88,378.55C2098.21,374.982 2112.85,328.872 2076.17,312.198C2036.72,294.283 1985.33,303.237 1973.46,319.786C1961.6,336.324 1929.18,380.789 1965.33,436.9C1965.33,436.9 1958.47,392.162 1983.19,411.892Z" style="fill:rgb(239,75,130);fill-rule:nonzero;"/>
    </g>
</svg>
